<svg width="25" height="24" viewBox="0 0 25 24" fill="none" xmlns="http://www.w3.org/2000/svg">
<path d="M15.7605 22.25H9.24047C4.33047 22.25 2.23047 20.15 2.23047 15.24V15.11C2.23047 10.67 3.98047 8.53003 7.90047 8.16003C8.30047 8.13003 8.68047 8.43003 8.72047 8.84003C8.76047 9.25003 8.46047 9.62003 8.04047 9.66003C4.90047 9.95003 3.73047 11.43 3.73047 15.12V15.25C3.73047 19.32 5.17047 20.76 9.24047 20.76H15.7605C19.8305 20.76 21.2705 19.32 21.2705 15.25V15.12C21.2705 11.41 20.0805 9.93003 16.8805 9.66003C16.4705 9.62003 16.1605 9.26003 16.2005 8.85003C16.2405 8.44003 16.5905 8.13003 17.0105 8.17003C20.9905 8.51003 22.7705 10.66 22.7705 15.13V15.26C22.7705 20.15 20.6705 22.25 15.7605 22.25Z" fill="#BBBBBB"/>
<path d="M12.5 15.7501C12.09 15.7501 11.75 15.4101 11.75 15.0001V3.62012C11.75 3.21012 12.09 2.87012 12.5 2.87012C12.91 2.87012 13.25 3.21012 13.25 3.62012V15.0001C13.25 15.4101 12.91 15.7501 12.5 15.7501Z" fill="#BBBBBB"/>
<path d="M15.8498 6.59994C15.6598 6.59994 15.4698 6.52994 15.3198 6.37994L12.4998 3.55994L9.67984 6.37994C9.38984 6.66994 8.90984 6.66994 8.61984 6.37994C8.32984 6.08994 8.32984 5.60994 8.61984 5.31994L11.9698 1.96994C12.2598 1.67994 12.7398 1.67994 13.0298 1.96994L16.3798 5.31994C16.6698 5.60994 16.6698 6.08994 16.3798 6.37994C16.2398 6.52994 16.0398 6.59994 15.8498 6.59994Z" fill="#BBBBBB"/>
</svg>
