<svg width="16" height="14" viewBox="0 0 16 14" fill="none" xmlns="http://www.w3.org/2000/svg">
<path d="M1 1.66045V5.66044M1 5.66044H5M1 5.66044L4.09333 2.75378C5.01394 1.83473 6.2083 1.23976 7.49645 1.05853C8.78459 0.87729 10.0968 1.1196 11.2352 1.74896C12.3737 2.37831 13.2768 3.36061 13.8084 4.54784C14.34 5.73508 14.4714 7.06294 14.1828 8.33135C13.8942 9.59976 13.2011 10.74 12.2081 11.5803C11.215 12.4206 9.97582 12.9153 8.67714 12.9901C7.37845 13.0648 6.09065 12.7155 5.00777 11.9947C3.92489 11.2739 3.10559 10.2207 2.67333 8.99377" stroke="#E5E7EB" stroke-width="2" stroke-linecap="round" stroke-linejoin="round"/>
</svg>
