<svg width="49" height="50" viewBox="0 0 49 50" fill="none" xmlns="http://www.w3.org/2000/svg">
<path d="M34.6726 24.7499H29.4642" stroke="white" stroke-width="3" stroke-miterlimit="10"/>
<path d="M31.5468 36.2066L26.8593 29.9566" stroke="white" stroke-width="3" stroke-miterlimit="10"/>
<path d="M20.6089 19.5422L17.4839 12.2505" stroke="white" stroke-width="3" stroke-miterlimit="10"/>
<path d="M19.5672 29.4359L12.2755 38.2901" stroke="white" stroke-width="3" stroke-miterlimit="10"/>
<path d="M17.4843 23.709L11.2343 22.1465" stroke="white" stroke-width="3" stroke-miterlimit="10"/>
<path d="M32.0678 13.8126L26.797 20.2709" stroke="white" stroke-width="3" stroke-miterlimit="10"/>
<path d="M29.1924 24.8746V24.9996C29.1951 25.7866 29.0425 26.5663 28.7432 27.2942C28.444 28.022 28.004 28.6836 27.4485 29.241C26.893 29.7984 26.233 30.2407 25.5062 30.5425C24.7794 30.8443 24.0002 30.9996 23.2132 30.9996C21.6306 30.978 20.1192 30.3382 19.002 29.2171C17.8847 28.0959 17.2502 26.5823 17.2341 24.9996C17.2266 24.5358 17.2827 24.0732 17.4007 23.6246C17.615 22.7006 18.0461 21.8409 18.6583 21.1164C19.2705 20.3919 20.0463 19.8234 20.9216 19.458C21.6509 19.1662 22.4277 19.0108 23.2132 18.9996C24.7763 19.0152 26.2724 19.636 27.3874 20.7315C28.5024 21.8271 29.1493 23.3121 29.1924 24.8746Z" stroke="white" stroke-width="3" stroke-miterlimit="10"/>
<path d="M23.2141 28.6457C25.2276 28.6457 26.8599 27.0134 26.8599 24.9999C26.8599 22.9864 25.2276 21.3541 23.2141 21.3541C21.2005 21.3541 19.5682 22.9864 19.5682 24.9999C19.5682 27.0134 21.2005 28.6457 23.2141 28.6457Z" fill="#FF39A4"/>
<path d="M33.1095 14.3313C34.26 14.3313 35.1928 13.3985 35.1928 12.2479C35.1928 11.0974 34.26 10.1646 33.1095 10.1646C31.9589 10.1646 31.0261 11.0974 31.0261 12.2479C31.0261 13.3985 31.9589 14.3313 33.1095 14.3313Z" fill="#FF39A4" stroke="#FF39A4" stroke-width="3" stroke-miterlimit="10"/>
<path d="M9.15059 23.7066C10.3012 23.7066 11.2339 22.7738 11.2339 21.6232C11.2339 20.4727 10.3012 19.5399 9.15059 19.5399C8 19.5399 7.06726 20.4727 7.06726 21.6232C7.06726 22.7738 8 23.7066 9.15059 23.7066Z" fill="#FF39A4" stroke="#FF39A4" stroke-width="3" stroke-miterlimit="10"/>
<path d="M33.1099 41.4166C34.8358 41.4166 36.2349 40.0175 36.2349 38.2916C36.2349 36.5657 34.8358 35.1666 33.1099 35.1666C31.384 35.1666 29.9849 36.5657 29.9849 38.2916C29.9849 40.0175 31.384 41.4166 33.1099 41.4166Z" stroke="#FF39A4" stroke-width="3" stroke-miterlimit="10"/>
<path d="M9.67192 45.5825C11.9731 45.5825 13.8386 43.7171 13.8386 41.4159C13.8386 39.1147 11.9731 37.2492 9.67192 37.2492C7.37073 37.2492 5.50525 39.1147 5.50525 41.4159C5.50525 43.7171 7.37073 45.5825 9.67192 45.5825Z" stroke="white" stroke-width="3" stroke-miterlimit="10"/>
<path d="M37.7975 27.8759C39.5234 27.8759 40.9225 26.4767 40.9225 24.7509C40.9225 23.025 39.5234 21.6259 37.7975 21.6259C36.0716 21.6259 34.6725 23.025 34.6725 24.7509C34.6725 26.4767 36.0716 27.8759 37.7975 27.8759Z" stroke="white" stroke-width="3" stroke-miterlimit="10"/>
<path d="M15.9213 12.2493C17.6472 12.2493 19.0463 10.8502 19.0463 9.12427C19.0463 7.39838 17.6472 5.99927 15.9213 5.99927C14.1954 5.99927 12.7963 7.39838 12.7963 9.12427C12.7963 10.8502 14.1954 12.2493 15.9213 12.2493Z" stroke="white" stroke-width="3" stroke-miterlimit="10"/>
</svg>
