<svg width="16" height="14" viewBox="0 0 16 14" fill="none" xmlns="http://www.w3.org/2000/svg">
<path d="M14.7742 1.66537V5.66537M14.7742 5.66537H10.7742M14.7742 5.66537L11.6876 2.75871C10.768 1.83853 9.57424 1.24216 8.28622 1.05947C6.9982 0.876774 5.68569 1.11765 4.54649 1.7458C3.40728 2.37395 2.50308 3.35534 1.97016 4.54208C1.43724 5.72883 1.30446 7.05663 1.59183 8.3254C1.8792 9.59418 2.57116 10.7352 3.56342 11.5765C4.55569 12.4178 5.7945 12.9138 7.09319 12.9898C8.39188 13.0657 9.68009 12.7176 10.7637 11.9977C11.8473 11.2778 12.6676 10.2253 13.1009 8.9987" stroke="#E5E7EB" stroke-width="2" stroke-linecap="round" stroke-linejoin="round"/>
</svg>
