<svg width="20" height="17" viewBox="0 0 20 17" fill="none" xmlns="http://www.w3.org/2000/svg">
<path d="M8.13704 2.91265C8.72236 2.75604 9.34393 2.66667 10.0003 2.66667C15.3034 2.66667 18.3337 8.5 18.3337 8.5C18.3337 8.5 17.6428 9.82982 16.3437 11.2196M3.62459 5.81519C2.34633 7.19228 1.66699 8.5 1.66699 8.5C1.66699 8.5 4.6973 14.3333 10.0003 14.3333C10.6687 14.3333 11.301 14.2407 11.8957 14.0787M9.58366 10.9654C8.68018 10.8139 7.94102 10.1777 7.64258 9.33333M10.417 6.03457C11.4639 6.2102 12.2901 7.03646 12.4658 8.08333M2.50033 1L17.5003 16" stroke="#DADADA" stroke-width="1.5" stroke-linecap="round" stroke-linejoin="round"/>
</svg>
