<svg width="10" height="16" viewBox="0 0 10 16" fill="none" xmlns="http://www.w3.org/2000/svg">
<path d="M0.384766 7.9957C0.384766 8.14628 0.411968 8.28527 0.466374 8.41268C0.526824 8.54009 0.6175 8.6617 0.7384 8.77753L7.80202 15.397C8.00756 15.5939 8.2554 15.6924 8.54556 15.6924C8.74505 15.6924 8.92338 15.646 9.08055 15.5534C9.24376 15.4665 9.37373 15.3449 9.47045 15.1885C9.56717 15.0379 9.61553 14.87 9.61553 14.6847C9.61553 14.4067 9.5037 14.1606 9.28004 13.9463L2.91461 7.9957L9.28004 2.04513C9.5037 1.83085 9.61553 1.58762 9.61553 1.31543C9.61553 1.12431 9.56717 0.95347 9.47045 0.802896C9.37373 0.652322 9.24376 0.5336 9.08055 0.446731C8.92338 0.35407 8.74505 0.307739 8.54556 0.307739C8.2554 0.307739 8.00756 0.403296 7.80202 0.594409L0.7384 7.21388C0.6175 7.3297 0.526824 7.45132 0.466374 7.57873C0.411968 7.70614 0.384766 7.84513 0.384766 7.9957Z" fill="white"/>
</svg>
