<svg width="16" height="16" viewBox="0 0 16 16" fill="none" xmlns="http://www.w3.org/2000/svg">
<path d="M10.1602 14.8467H10.0735C7.11351 14.8467 5.68684 13.68 5.44017 11.0667C5.41351 10.7933 5.61351 10.5467 5.89351 10.52C6.16684 10.4933 6.41351 10.7 6.44017 10.9733C6.63351 13.0667 7.62017 13.8467 10.0802 13.8467H10.1668C12.8802 13.8467 13.8402 12.8867 13.8402 10.1733V5.82665C13.8402 3.11332 12.8802 2.15332 10.1668 2.15332H10.0802C7.60684 2.15332 6.62017 2.94665 6.44017 5.07999C6.40684 5.35332 6.18017 5.55999 5.89351 5.53332C5.61351 5.51332 5.41351 5.26665 5.43351 4.99332C5.66017 2.33999 7.09351 1.15332 10.0735 1.15332H10.1602C13.4335 1.15332 14.8335 2.55332 14.8335 5.82665V10.1733C14.8335 13.4467 13.4335 14.8467 10.1602 14.8467Z" fill="white"/>
<path d="M9.92016 8.5H1.3335C1.06016 8.5 0.833496 8.27333 0.833496 8C0.833496 7.72667 1.06016 7.5 1.3335 7.5H9.92016C10.1935 7.5 10.4202 7.72667 10.4202 8C10.4202 8.27333 10.2002 8.5 9.92016 8.5Z" fill="white"/>
<path d="M8.43339 10.7333C8.30673 10.7333 8.18006 10.6866 8.08006 10.5866C7.88673 10.3933 7.88673 10.0733 8.08006 9.87998L9.96006 7.99998L8.08006 6.11998C7.88673 5.92664 7.88673 5.60664 8.08006 5.41331C8.27339 5.21998 8.59339 5.21998 8.78673 5.41331L11.0201 7.64664C11.2134 7.83998 11.2134 8.15998 11.0201 8.35331L8.78673 10.5866C8.68673 10.6866 8.56006 10.7333 8.43339 10.7333Z" fill="white"/>
</svg>
