<svg width="16" height="16" viewBox="0 0 16 16" fill="none" xmlns="http://www.w3.org/2000/svg">
<path d="M8.00016 15.2066C7.54016 15.2066 7.10683 14.9733 6.80016 14.5666L5.80016 13.2333C5.78016 13.2066 5.70016 13.1733 5.66683 13.1666H5.3335C2.5535 13.1666 0.833496 12.4133 0.833496 8.66659V5.33325C0.833496 2.38659 2.38683 0.833252 5.3335 0.833252H10.6668C13.6135 0.833252 15.1668 2.38659 15.1668 5.33325V8.66659C15.1668 11.6133 13.6135 13.1666 10.6668 13.1666H10.3335C10.2802 13.1666 10.2335 13.1933 10.2002 13.2333L9.20016 14.5666C8.8935 14.9733 8.46016 15.2066 8.00016 15.2066ZM5.3335 1.83325C2.94683 1.83325 1.8335 2.94659 1.8335 5.33325V8.66659C1.8335 11.6799 2.86683 12.1666 5.3335 12.1666H5.66683C6.00683 12.1666 6.3935 12.3599 6.60016 12.6333L7.60016 13.9666C7.8335 14.2733 8.16683 14.2733 8.40016 13.9666L9.40016 12.6333C9.62016 12.3399 9.96683 12.1666 10.3335 12.1666H10.6668C13.0535 12.1666 14.1668 11.0533 14.1668 8.66659V5.33325C14.1668 2.94659 13.0535 1.83325 10.6668 1.83325H5.3335Z" fill="white"/>
<path d="M8.00016 8.00008C7.62683 8.00008 7.3335 7.70008 7.3335 7.33341C7.3335 6.96675 7.6335 6.66675 8.00016 6.66675C8.36683 6.66675 8.66683 6.96675 8.66683 7.33341C8.66683 7.70008 8.3735 8.00008 8.00016 8.00008Z" fill="white"/>
<path d="M10.6667 8.00008C10.2933 8.00008 10 7.70008 10 7.33341C10 6.96675 10.3 6.66675 10.6667 6.66675C11.0333 6.66675 11.3333 6.96675 11.3333 7.33341C11.3333 7.70008 11.04 8.00008 10.6667 8.00008Z" fill="white"/>
<path d="M5.33317 8.00008C4.95984 8.00008 4.6665 7.70008 4.6665 7.33341C4.6665 6.96675 4.9665 6.66675 5.33317 6.66675C5.69984 6.66675 5.99984 6.96675 5.99984 7.33341C5.99984 7.70008 5.7065 8.00008 5.33317 8.00008Z" fill="white"/>
</svg>
