<svg width="200" height="50" viewBox="0 0 200 50" fill="none" xmlns="http://www.w3.org/2000/svg">
<path d="M58.8757 33.7269C59.0698 33.3088 59.5625 32.6668 59.9806 32.2787V32.2637C60.3837 31.8755 60.8017 31.562 60.8913 31.562C60.966 31.562 61.0854 31.7412 61.1451 31.9651C61.1899 32.204 61.16 32.7564 61.0555 33.2043C60.966 33.6522 60.7271 34.2793 60.518 34.5779C60.309 34.8914 59.8313 35.3543 59.4431 35.5931C59.04 35.847 58.6219 36.041 58.5025 36.041C58.3233 36.041 58.2935 35.9067 58.398 35.2647C58.4726 34.8317 58.6816 34.13 58.8757 33.7269Z" fill="white"/>
<path d="M171.628 29.5763C171.314 29.1135 171.299 28.9492 171.255 25.4854L171.21 21.8574H173.614V24.8733C173.599 27.6652 173.629 27.934 173.897 28.2774C174.181 28.6506 174.211 28.6506 176.435 28.6506C178.391 28.6506 178.72 28.6208 178.944 28.3819C179.183 28.143 179.212 27.7847 179.242 21.8574H181.676V25.3212C181.676 28.6506 181.661 28.8298 181.332 29.3822C181.153 29.7107 180.765 30.1138 180.481 30.278C179.989 30.5766 179.72 30.5915 176.45 30.5915C173.39 30.5915 172.882 30.5617 172.449 30.3228C172.195 30.1884 171.822 29.845 171.628 29.5763Z" fill="white"/>
<path fill-rule="evenodd" clip-rule="evenodd" d="M117.476 22.8279V23.7983L125.121 23.873C125.569 24.4553 125.688 24.7539 125.658 24.9181C125.613 25.2018 125.464 25.2167 121.717 25.2913L117.82 25.366C116.939 26.0677 116.581 26.4858 116.476 26.7545C116.372 27.0083 116.282 27.5458 116.282 27.934C116.282 28.3819 116.401 28.9044 116.61 29.3225C116.849 29.8002 117.133 30.0839 117.551 30.2929C118.103 30.5766 118.492 30.5915 123.12 30.6214L128.077 30.6662C128.077 24.6643 128.032 23.6789 127.868 23.3056C127.763 23.0518 127.509 22.6786 127.315 22.5143C127.121 22.3352 126.718 22.1262 126.434 22.0217C126.091 21.9171 124.494 21.8574 121.687 21.8574H117.476V22.8279ZM119.119 27.4114C118.999 27.5159 118.925 27.7846 118.94 28.0086C118.954 28.2923 119.089 28.4714 119.343 28.5759C119.567 28.6655 120.955 28.7103 122.672 28.6954L125.613 28.6506L125.688 27.2322C120.253 27.2322 119.268 27.277 119.119 27.4114Z" fill="white"/>
<path fill-rule="evenodd" clip-rule="evenodd" d="M104.189 28.1281V34.3987H106.577V30.6662C111.863 30.5915 112.072 30.5617 112.848 30.2034C113.296 29.9943 113.893 29.5912 114.162 29.3075C114.431 29.0239 114.759 28.561 114.893 28.2774C115.043 27.9638 115.177 27.2621 115.207 26.5604C115.237 25.8438 115.192 25.0973 115.073 24.6941C114.953 24.3209 114.699 23.7834 114.49 23.4997C114.281 23.2161 113.804 22.798 113.43 22.589C113.072 22.365 112.37 22.1112 111.878 22.0217C111.385 21.9321 109.459 21.8574 107.578 21.8574H104.189V28.1281ZM106.667 23.9775C106.622 24.0969 106.607 25.1868 106.622 26.4111L106.652 28.6506C110.877 28.6506 111.191 28.6207 111.654 28.352C111.937 28.1728 112.296 27.8145 112.445 27.5308C112.654 27.1277 112.699 26.7993 112.639 26.0378C112.594 25.4108 112.475 24.933 112.281 24.6941C112.131 24.4851 111.803 24.2163 111.564 24.0969C111.251 23.9327 110.504 23.858 108.936 23.8282C107.175 23.7834 106.727 23.8132 106.667 23.9775Z" fill="white"/>
<path fill-rule="evenodd" clip-rule="evenodd" d="M144.948 21.8427C144.575 21.9174 144.007 22.0816 143.679 22.216C143.35 22.3653 142.873 22.634 142.634 22.8132C142.395 23.0072 141.992 23.5149 141.738 23.9628C141.335 24.6943 141.29 24.8884 141.29 26.1874C141.29 27.4266 141.335 27.7102 141.708 28.4567C141.977 29.039 142.32 29.472 142.753 29.7855C143.096 30.0244 143.724 30.3379 144.127 30.4574C144.694 30.6216 145.814 30.6664 148.949 30.6664H153.01V28.7255C145.948 28.7255 145.411 28.6956 144.948 28.4567C144.664 28.3224 144.321 27.979 144.171 27.7102L143.903 27.2325C150.024 27.2325 151.024 27.1877 151.636 27.0085C152.219 26.8443 152.532 26.6353 152.846 26.2172C153.129 25.8589 153.324 25.4259 153.368 24.993C153.413 24.6197 153.383 24.0524 153.309 23.7239C153.234 23.3954 152.98 22.9326 152.756 22.6937C152.517 22.4548 152.099 22.1562 151.816 22.0368C151.413 21.8576 150.651 21.7979 148.456 21.768C146.889 21.7382 145.321 21.783 144.948 21.8427ZM144.843 24.0972C144.575 24.2614 144.276 24.5301 144.201 24.6944L144.201 24.6944C144.127 24.8586 144.052 25.0228 144.052 25.0676C144.052 25.1124 145.515 25.1423 147.307 25.1423C149.711 25.1423 150.606 25.0975 150.741 24.9482C150.845 24.8586 150.92 24.6346 150.92 24.4704C150.92 24.3062 150.845 24.0822 150.741 23.9777C150.591 23.8433 149.845 23.7986 147.934 23.7986C145.59 23.7986 145.276 23.8284 144.843 24.0972Z" fill="white"/>
<path d="M131.436 22.5145C131.765 22.3204 132.466 22.0666 133.004 21.9471C133.661 21.7978 134.974 21.7232 140.17 21.7083V23.7985H137.005C134.273 23.7985 133.75 23.8433 133.302 24.0672C133.004 24.2165 132.675 24.545 132.526 24.8436C132.362 25.172 132.257 25.7095 132.257 26.2619C132.257 26.8143 132.362 27.3518 132.526 27.6803C132.675 27.9789 133.004 28.3074 133.302 28.4567C133.75 28.6955 134.273 28.7254 140.319 28.7254V30.6663H136.811C134.198 30.6663 133.108 30.6066 132.511 30.4424C131.974 30.2931 131.496 30.0094 130.943 29.5167C130.361 28.9941 130.077 28.591 129.898 28.0535C129.749 27.6206 129.644 26.8442 129.644 26.1873C129.644 25.5751 129.749 24.8286 129.853 24.545C129.973 24.2613 130.242 23.7686 130.451 23.4401C130.66 23.1266 131.108 22.7086 131.436 22.5145Z" fill="white"/>
<path fill-rule="evenodd" clip-rule="evenodd" d="M183.467 24.545V30.6663C189.469 30.6663 190.589 30.6066 191.351 30.4424C191.903 30.308 192.62 30.0243 192.948 29.7854C193.277 29.5615 193.739 29.0539 193.993 28.6507C194.396 28.0087 194.441 27.7848 194.486 26.5008C194.531 25.396 194.471 24.9182 194.277 24.3957C194.128 24.0224 193.739 23.4551 193.411 23.1117C193.068 22.7832 192.47 22.395 192.052 22.2457C191.455 22.0218 190.753 21.9471 188.663 21.9173L186.006 21.8575L185.931 18.4983L183.482 18.4087L183.467 24.545ZM186.02 26.1723L186.006 28.5761C190.29 28.5761 190.619 28.5462 191.052 28.2775C191.306 28.1132 191.634 27.74 191.754 27.4563C191.873 27.1726 191.978 26.5754 191.978 26.1425C191.978 25.6249 191.878 25.2019 191.679 24.8734C191.515 24.6196 191.201 24.2762 190.977 24.1269C190.649 23.9179 190.141 23.8582 188.305 23.8134L186.035 23.7686L186.02 26.1723Z" fill="white"/>
<path d="M155.07 24.6494C155.055 21.335 155.1 18.5729 155.175 18.5281C155.25 18.4684 155.892 18.4236 157.937 18.4236V23.4998L166.373 23.4252L166.402 18.4236H169.135V30.6663H166.447V25.7393H157.937V30.6663H155.1L155.07 24.6494Z" fill="white"/>
<path d="M90.1543 18.8715C90.3633 18.767 90.6918 18.6177 90.9008 18.558C91.1098 18.4982 93.6778 18.4385 101.949 18.4236V20.6631H96.9923C92.2296 20.6482 92.0056 20.6631 91.6175 20.9617C91.2741 21.2006 91.1994 21.3797 91.1994 21.8874C91.1845 22.3054 91.289 22.6637 91.7668 23.2759L100.083 23.4252L100.949 23.8283C101.621 24.1567 101.889 24.3956 102.203 24.948C102.531 25.5303 102.621 25.9036 102.666 26.8591C102.711 27.9341 102.681 28.1282 102.292 28.8747C102.039 29.3674 101.665 29.8302 101.352 30.0392C101.068 30.2333 100.59 30.4423 100.307 30.517C100.023 30.6066 97.276 30.6663 88.6613 30.6663L88.736 28.5014L93.8122 28.4715C96.6041 28.4566 99.0377 28.4118 99.2169 28.367C99.411 28.3073 99.6648 28.0834 99.7842 27.8295C99.9037 27.5757 100.008 27.2174 100.008 27.0084C100.008 26.7994 99.9186 26.4709 99.829 26.2619C99.7245 26.0529 99.4707 25.814 99.2617 25.7393C99.0527 25.6647 97.1117 25.5751 94.9319 25.5602C91.513 25.5154 90.9008 25.4706 90.3783 25.2466C90.0498 25.0973 89.5571 24.7689 89.2884 24.5001C88.9898 24.2165 88.7061 23.7238 88.5717 23.2759C88.4523 22.8578 88.3627 22.2905 88.3627 22.0068C88.3627 21.7231 88.4523 21.1409 88.5717 20.7378C88.7061 20.2898 88.9898 19.8121 89.2884 19.5284C89.5571 19.2597 89.9453 18.976 90.1543 18.8715Z" fill="white"/>
<path d="M29.0155 11.3317C29.8815 10.4658 30.5235 9.98803 31.3297 9.58492C31.9418 9.27139 32.5391 9.01758 32.6286 9.01758C32.7331 9.01758 32.8227 9.06237 32.8227 9.12209C32.8227 9.19674 32.6137 9.54013 32.3599 9.91338C32.0912 10.2866 30.8818 11.7946 29.6725 13.2727C28.4482 14.7507 27.1941 16.2587 26.2684 17.3038L26.2535 16.7812C26.2535 16.4976 26.358 15.8854 26.4924 15.4375C26.6267 14.9896 26.9701 14.1535 27.2687 13.5713C27.642 12.8546 28.1944 12.1529 29.0155 11.3317Z" fill="white"/>
<path fill-rule="evenodd" clip-rule="evenodd" d="M41.1089 8.12174C40.6162 8.19639 39.601 8.43527 38.8694 8.64429C38.1378 8.86824 37.0479 9.25643 36.4806 9.52517C35.9132 9.79391 34.898 10.3762 34.2411 10.8092C33.5841 11.2571 32.5092 12.1529 31.8523 12.8247C31.1953 13.4816 30.2846 14.5865 29.8218 15.2882C29.3589 15.9899 28.702 17.1395 28.3586 17.8711C27.9406 18.752 27.4628 19.4686 26.8955 20.0808C26.343 20.663 25.7011 21.1408 25.1337 21.4245C24.3424 21.7977 23.7452 21.9172 20.0575 22.38C19.2422 22.4859 18.226 22.6162 17.1441 22.7549C15.1749 23.0074 12.9879 23.2878 11.398 23.4997C8.93455 23.8282 6.36657 24.1716 5.69471 24.2761C5.02286 24.3806 4.48537 24.4851 4.5003 24.5001C4.51523 24.515 5.81415 24.7091 7.36688 24.9181C7.72994 24.9665 8.11863 25.0181 8.51328 25.0705C9.8227 25.2444 11.1978 25.427 11.9206 25.5302C12.8612 25.6497 14.384 25.8438 15.2798 25.9632C15.8404 26.0367 16.7176 26.1555 17.5948 26.2742C18.1429 26.3484 18.6909 26.4226 19.1617 26.4858C20.4009 26.65 21.9685 26.8441 22.6702 26.9187C23.372 26.9934 24.3424 27.2173 24.8351 27.3965C25.5219 27.6503 25.9698 27.9638 26.7163 28.7104C27.5076 29.5166 27.851 30.0242 28.5228 31.4127C28.9857 32.3533 29.7173 33.6074 30.1353 34.1748C30.5683 34.7421 31.2551 35.5782 31.6731 36.0112C32.1061 36.4591 32.9869 37.2205 33.6439 37.7132C34.3008 38.2059 35.5101 38.9375 36.3313 39.3406C37.1524 39.7437 38.4962 40.2513 39.3173 40.4753C40.7058 40.8635 41.0193 40.8933 43.5724 40.8933C46.1404 40.8933 46.439 40.8635 47.8275 40.4753C48.6486 40.2364 49.8878 39.7885 50.5895 39.46C51.2913 39.1316 52.2916 38.5642 52.8291 38.2059C53.3665 37.8625 54.2922 37.1011 54.9043 36.5487C55.5165 35.9813 56.4123 34.981 56.905 34.3241C57.3827 33.6671 58.1292 32.3981 58.5622 31.4874C59.0997 30.3676 59.6073 29.5763 60.1597 28.9642C60.6076 28.4864 61.2347 27.934 61.5632 27.7399C61.8916 27.5607 62.5635 27.3069 63.0562 27.1726C63.5489 27.0531 64.8926 26.8441 66.0422 26.7097C67.1918 26.5753 69.073 26.3365 70.2226 26.1872C71.3722 26.0229 74.3881 25.6198 76.9412 25.2914C79.4942 24.9629 81.8084 24.6494 82.0921 24.6046C82.3757 24.5598 82.5848 24.5001 82.54 24.4702C82.4952 24.4403 81.2261 24.2463 79.7032 24.0372C78.1804 23.8282 75.3884 23.455 73.5072 23.2161C72.0132 23.0145 69.7094 22.7188 67.8371 22.4784C67.3519 22.4161 66.8957 22.3576 66.4901 22.3053C63.31 21.9022 62.8024 21.7977 62.0111 21.4095C61.5184 21.1557 60.951 20.8123 60.742 20.6182C60.533 20.4391 60.1149 19.9912 59.8163 19.6179C59.5177 19.2447 58.9653 18.3041 58.607 17.5277C58.2338 16.7513 57.5918 15.6017 57.1588 14.9896C56.7258 14.3775 55.8449 13.3473 55.188 12.7053C54.546 12.0782 53.4412 11.1675 52.7245 10.6897C51.993 10.212 50.8732 9.59982 50.2163 9.33108C49.5594 9.0474 48.4097 8.65922 47.6782 8.46513C46.6331 8.18146 45.8567 8.09188 44.1696 8.04709C42.9752 8.01723 41.6016 8.04709 41.1089 8.12174ZM41.2284 11.8692C40.7954 11.9438 39.8847 12.2126 39.1979 12.4514C38.526 12.7052 37.4958 13.183 36.9285 13.5264C36.3462 13.8698 35.3608 14.6611 34.7039 15.2882C34.0619 15.9003 33.2258 16.8857 32.8526 17.453C32.4644 18.0204 31.9717 18.9759 31.7328 19.5432C31.4939 20.1106 31.1655 21.1557 31.0162 21.8574C30.8669 22.5591 30.7325 23.6639 30.7325 24.3209C30.7325 24.9778 30.8221 26.0528 30.9415 26.7097C31.061 27.3666 31.3596 28.4416 31.6134 29.0985C31.8523 29.7554 32.3151 30.696 32.6435 31.1887C32.9571 31.6814 33.5692 32.4876 34.0171 32.9803C34.4501 33.473 35.2862 34.2345 35.8685 34.6824C36.4507 35.1303 37.466 35.7424 38.1229 36.0559C38.7798 36.3695 39.8847 36.7576 40.5864 36.9219C41.4822 37.1458 42.3481 37.2354 43.5724 37.2354C44.7967 37.2354 45.6626 37.1458 46.5584 36.9219C47.2601 36.7576 48.2903 36.3993 48.8726 36.1306C49.4548 35.8618 50.3507 35.3542 50.8881 34.9959C51.4256 34.6226 52.2318 33.9657 52.6947 33.5029C53.1426 33.055 53.7995 32.2786 54.128 31.7859C54.4564 31.2932 54.8894 30.5467 55.0984 30.1436C55.3074 29.7256 55.621 28.9641 55.7852 28.4266C55.9644 27.8892 56.1734 27.0531 56.263 26.5604C56.3376 26.0677 56.4123 25.1271 56.4123 24.4702C56.4123 23.8132 56.3078 22.7532 56.1883 22.1112C56.0689 21.4841 55.7703 20.439 55.5165 19.797C55.2776 19.17 54.7401 18.1398 54.337 17.5277C53.9339 16.9155 53.1724 15.9899 52.6648 15.4822C52.1423 14.9746 51.5451 14.4222 51.336 14.2729C51.127 14.1087 50.5 13.6906 49.9177 13.3622C49.3354 13.0188 48.2306 12.541 47.4542 12.2872C46.215 11.8841 45.782 11.8094 44.0203 11.7646C42.9155 11.7497 41.6464 11.7796 41.2134 11.8692H41.2284Z" fill="white"/>
<path d="M39.6905 16.6617C40.3923 16.3333 41.2881 15.9899 41.7061 15.9152C42.1092 15.8256 42.9154 15.7659 43.4977 15.751C44.08 15.751 44.9758 15.8406 45.5133 15.96C46.0508 16.0794 46.9914 16.4228 47.6035 16.7214C48.3799 17.1096 49.0368 17.6023 49.7833 18.3339C50.5149 19.0804 50.9926 19.7224 51.3808 20.5137C51.6943 21.1258 52.0377 22.1112 52.1572 22.6785C52.2766 23.2459 52.3811 24.0969 52.3811 24.5448C52.3811 24.9927 52.2468 25.9034 52.0825 26.5604C51.9034 27.2173 51.56 28.1579 51.2912 28.6506C51.0374 29.1433 50.3506 30.0242 49.7684 30.5915C49.1114 31.2634 48.35 31.8456 47.6782 32.189C47.0959 32.4876 46.2001 32.8459 45.6626 32.9654C45.1251 33.0998 44.1845 33.2043 43.5724 33.2043C42.9602 33.2043 42.0196 33.0998 41.4822 32.9654C40.9447 32.8459 40.0339 32.4876 39.4666 32.189C38.7947 31.8456 38.0333 31.2634 37.3614 30.6064C36.6299 29.8599 36.1521 29.2179 35.7639 28.4266C35.4504 27.8145 35.107 26.8291 34.9876 26.2618C34.8681 25.6944 34.7636 24.8733 34.7636 24.4702C34.7636 24.0521 34.8681 23.2459 34.9876 22.6785C35.1219 22.1112 35.4653 21.1258 35.7789 20.5137C36.1521 19.7522 36.6597 19.0655 37.3764 18.3339C38.1826 17.5277 38.7201 17.1395 39.6905 16.6617Z" fill="white"/>
<path d="M39.9145 5.65835C40.4072 5.52398 41.3179 5.31496 41.9301 5.21045C42.5422 5.10594 43.6022 5.01636 44.289 5.00143C44.9609 4.9865 46.1702 5.09101 46.9615 5.21045C47.7677 5.34482 48.992 5.61356 49.6937 5.82258C50.3954 6.0316 51.5301 6.49444 52.2318 6.83783C52.9336 7.18122 54.0085 7.80829 54.6207 8.22633C55.2328 8.64437 56.1734 9.42074 56.6959 9.92836C57.2185 10.4509 58.0247 11.3915 58.4876 12.0036C58.9504 12.6158 59.6372 13.7206 60.0254 14.4671C60.3986 15.2136 60.8465 16.2886 61.0257 16.8559C61.1899 17.4233 61.3392 18.0055 61.3392 18.125C61.3392 18.2444 61.1899 18.1101 61.0257 17.8264C60.8465 17.5427 60.2792 16.6618 59.7566 15.8855C59.249 15.1091 58.4278 14.0341 57.9501 13.4967C57.4723 12.9592 56.6213 12.0932 56.039 11.5707C55.4567 11.0481 54.4266 10.2568 53.7249 9.79399C53.0231 9.33116 51.8437 8.67423 51.1121 8.33084C50.3805 7.98745 49.201 7.53954 48.4993 7.33052C47.7976 7.10657 46.5883 6.8229 45.8119 6.68853C44.9012 6.5243 43.6172 6.43472 42.2287 6.43472C40.9298 6.43472 39.4666 6.53923 38.5708 6.68853C37.7496 6.8229 37.0629 6.91248 37.033 6.88262C37.0181 6.86769 37.451 6.64374 38.0035 6.38993C38.5708 6.13611 39.4218 5.80765 39.9145 5.65835Z" fill="white"/>
<path d="M26.4774 32.876C26.2684 32.3086 26.1042 31.7562 26.1042 31.6368C26.1042 31.5174 26.1489 31.4128 26.1937 31.4128C26.2535 31.4128 26.6715 32.0399 27.1343 32.8013C27.5822 33.5478 28.3287 34.6079 28.7766 35.1454C29.2245 35.6829 30.0009 36.504 30.4936 36.9818C31.0012 37.4595 31.9717 38.2508 32.6734 38.7435C33.3751 39.2511 34.465 39.923 35.0921 40.2365C35.7341 40.5501 36.8389 41.0129 37.5555 41.2667C38.2871 41.5056 39.377 41.8191 39.9892 41.9535C40.6013 42.0879 42.0794 42.2222 43.2738 42.267C44.931 42.3417 45.797 42.2969 47.0063 42.0879C47.8722 41.9535 49.1413 41.6698 49.843 41.4608C50.5447 41.2667 51.6496 40.8487 52.3065 40.565C52.9634 40.2664 53.904 39.7886 54.3967 39.505C54.8894 39.2213 55.4418 38.848 55.621 38.6689C55.8151 38.5046 56.0092 38.4151 56.0689 38.4748C56.1435 38.5345 55.7852 38.9675 55.2925 39.4303C54.7998 39.8931 53.9936 40.5501 53.5009 40.8935C53.0082 41.2518 52.0676 41.8191 51.4107 42.1476C50.7538 42.491 49.5743 42.9687 48.7979 43.2076C48.0216 43.4465 46.7674 43.7451 46.0358 43.8795C45.3043 43.9989 44.1099 44.1034 43.3783 44.1034C42.6616 44.1034 41.4224 43.9989 40.6311 43.8795C39.8249 43.76 38.5559 43.4913 37.8243 43.2823C37.0927 43.0583 35.9132 42.5955 35.2115 42.2521C34.5098 41.9087 33.5095 41.3264 32.972 40.9681C32.4345 40.6098 31.4043 39.7438 30.6877 39.0421C29.9561 38.3404 29.0454 37.3252 28.6423 36.7877C28.2541 36.2502 27.6867 35.3842 27.4031 34.8468C27.1045 34.3093 26.6864 33.4284 26.4774 32.876Z" fill="white"/>
</svg>
