<svg width="24" height="24" viewBox="0 0 24 24" fill="none" xmlns="http://www.w3.org/2000/svg">
<path d="M12.0223 21.3468C9.46938 21.3468 6.91645 20.9414 4.49501 20.1306C3.57465 19.8129 2.87341 19.1664 2.56663 18.3227C2.24888 17.4791 2.35845 16.5478 2.86246 15.715L4.12248 13.6223C4.38545 13.184 4.62649 12.3075 4.62649 11.7925V8.62603C4.62649 4.55012 7.94639 1.23022 12.0223 1.23022C16.0982 1.23022 19.4181 4.55012 19.4181 8.62603V11.7925C19.4181 12.2965 19.6591 13.184 19.9221 13.6333L21.1712 15.715C21.6423 16.5039 21.73 17.4572 21.4122 18.3227C21.0945 19.1883 20.4042 19.8457 19.5386 20.1306C17.1281 20.9414 14.5752 21.3468 12.0223 21.3468ZM12.0223 2.87374C8.8558 2.87374 6.27001 5.44857 6.27001 8.62603V11.7925C6.27001 12.5924 5.9413 13.7757 5.5359 14.466L4.27588 16.5587C4.03483 16.9641 3.96909 17.3914 4.11153 17.753C4.24301 18.1255 4.57171 18.4104 5.02094 18.5638C9.60085 20.0977 14.4547 20.0977 19.0346 18.5638C19.4291 18.4323 19.7358 18.1365 19.8783 17.742C20.0207 17.3476 19.9878 16.9203 19.7687 16.5587L18.5087 14.466C18.0923 13.7538 17.7746 12.5814 17.7746 11.7816V8.62603C17.7746 5.44857 15.1998 2.87374 12.0223 2.87374Z" fill="white"/>
<path d="M14.0597 3.16957C13.983 3.16957 13.9063 3.15861 13.8297 3.1367C13.5119 3.04904 13.2051 2.9833 12.9093 2.93948C11.978 2.81895 11.0795 2.88469 10.2358 3.1367C9.92905 3.23531 9.60035 3.1367 9.39217 2.90661C9.18399 2.67652 9.11825 2.34781 9.23878 2.05198C9.688 0.901523 10.7837 0.145508 12.0327 0.145508C13.2818 0.145508 14.3775 0.890566 14.8267 2.05198C14.9363 2.34781 14.8815 2.67652 14.6733 2.90661C14.509 3.08191 14.2789 3.16957 14.0597 3.16957Z" fill="white"/>
<path d="M12.0228 23.8449C10.9381 23.8449 9.88628 23.4066 9.1193 22.6396C8.35233 21.8726 7.91406 20.8208 7.91406 19.7361H9.55757C9.55757 20.3825 9.82054 21.018 10.2807 21.4782C10.7409 21.9384 11.3764 22.2014 12.0228 22.2014C13.3815 22.2014 14.4881 21.0947 14.4881 19.7361H16.1316C16.1316 22.0041 14.2909 23.8449 12.0228 23.8449Z" fill="white"/>
</svg>
