<svg width="50" height="50" viewBox="0 0 50 50" fill="none" xmlns="http://www.w3.org/2000/svg">
<g clip-path="url(#clip0_154_647)">
<path d="M23.5375 4.57292C24.3596 4.26532 25.2579 4.22522 26.1042 4.45834L26.4625 4.57292L41.0458 10.0417C41.7853 10.3189 42.4307 10.8006 42.9069 11.4306C43.383 12.0606 43.6704 12.813 43.7354 13.6L43.75 13.9438V25.1167C43.7499 28.4926 42.8384 31.8058 41.1117 34.7067C39.3849 37.6075 36.9071 39.9884 33.9396 41.5979L33.3854 41.8875L26.3979 45.3813C26.0132 45.5734 25.5929 45.684 25.1635 45.7062C24.734 45.7284 24.3046 45.6618 23.9021 45.5104L23.6021 45.3813L16.6146 41.8875C13.595 40.3777 11.0391 38.0806 9.21667 35.2388C7.39423 32.3969 6.37288 29.1158 6.26042 25.7417L6.25 25.1167V13.9438C6.25001 13.1544 6.47422 12.3814 6.89653 11.7145C7.31884 11.0477 7.92186 10.5145 8.63542 10.1771L8.95417 10.0417L23.5375 4.57292ZM25 8.47501L10.4167 13.9438V25.1167C10.4167 27.7313 11.1197 30.2978 12.452 32.5475C13.7843 34.7972 15.6969 36.6473 17.9896 37.9042L18.4792 38.1604L25 41.4208L31.5208 38.1604C33.8598 36.9911 35.8414 35.2144 37.2581 33.0164C38.6747 30.8183 39.4742 28.2798 39.5729 25.6667L39.5833 25.1167V13.9438L25 8.47501Z" fill="#FF39A4"/>
<path d="M29.6875 21.3542H28.9062V20.5729C28.9062 18.419 27.1539 16.6667 25 16.6667C22.8461 16.6667 21.0938 18.419 21.0938 20.5729V21.3542H20.3125C19.8981 21.3542 19.5007 21.5188 19.2076 21.8118C18.9146 22.1049 18.75 22.5023 18.75 22.9167V30.7292C18.75 31.1436 18.9146 31.541 19.2076 31.834C19.5007 32.1271 19.8981 32.2917 20.3125 32.2917H29.6875C30.1019 32.2917 30.4993 32.1271 30.7924 31.834C31.0854 31.541 31.25 31.1436 31.25 30.7292V22.9167C31.25 22.5023 31.0854 22.1049 30.7924 21.8118C30.4993 21.5188 30.1019 21.3542 29.6875 21.3542ZM22.6562 20.5729C22.6562 19.2807 23.7078 18.2292 25 18.2292C26.2922 18.2292 27.3438 19.2807 27.3438 20.5729V21.3542H22.6562V20.5729ZM25.7812 27.3878V29.1667H24.2188V27.3878C23.7539 27.1175 23.4375 26.619 23.4375 26.0417C23.4375 25.6273 23.6021 25.2299 23.8951 24.9368C24.1882 24.6438 24.5856 24.4792 25 24.4792C25.4144 24.4792 25.8118 24.6438 26.1049 24.9368C26.3979 25.2299 26.5625 25.6273 26.5625 26.0417C26.5625 26.6182 26.2461 27.1167 25.7812 27.3878Z" fill="white"/>
</g>
<defs>
<clipPath id="clip0_154_647">
<rect width="50" height="50" fill="white"/>
</clipPath>
</defs>
</svg>
