<svg width="16" height="16" viewBox="0 0 16 16" fill="none" xmlns="http://www.w3.org/2000/svg">
<path d="M8.00016 10.6666C9.47292 10.6666 10.6668 9.47268 10.6668 7.99992C10.6668 6.52716 9.47292 5.33325 8.00016 5.33325C6.5274 5.33325 5.3335 6.52716 5.3335 7.99992C5.3335 9.47268 6.5274 10.6666 8.00016 10.6666Z" stroke="white" stroke-linecap="round" stroke-linejoin="round"/>
<path d="M12.7782 5.29336L12.7344 5.21746C12.6135 5.00811 12.5517 4.76983 12.5558 4.5281L12.5757 3.34222C12.5798 3.09987 12.452 2.8744 12.242 2.75338L10.4176 1.70205C10.2081 1.58133 9.94968 1.58349 9.74225 1.7077L8.72952 2.31409C8.52254 2.43802 8.28581 2.50348 8.04456 2.50348H7.95676C7.71499 2.50348 7.47776 2.43774 7.27048 2.31329L6.2531 1.70251C6.04494 1.57755 5.7853 1.57562 5.57531 1.6975L3.75665 2.75303C3.54766 2.87433 3.42066 3.09922 3.42473 3.34083L3.4447 4.5281C3.44877 4.76983 3.38704 5.00811 3.26611 5.21746L3.22285 5.29235C3.10186 5.5018 2.92616 5.6744 2.71459 5.79165L1.678 6.3661C1.46553 6.48384 1.33392 6.70782 1.33447 6.95073L1.33925 9.05194C1.3398 9.29337 1.47083 9.51564 1.68182 9.63301L2.71343 10.2069C2.92573 10.325 3.10173 10.4989 3.22241 10.7097L3.26876 10.7907C3.38799 10.999 3.44878 11.2356 3.44473 11.4756L3.42477 12.6576C3.42068 12.9 3.54846 13.1255 3.75849 13.2465L5.58291 14.2978C5.79239 14.4186 6.05082 14.4164 6.25825 14.2922L7.27097 13.6858C7.47795 13.5619 7.71468 13.4964 7.95593 13.4964H8.04373C8.2855 13.4964 8.52273 13.5622 8.73002 13.6866L9.7474 14.2974C9.95556 14.4224 10.2152 14.4243 10.4252 14.3024L12.2438 13.2469C12.4528 13.1256 12.5798 12.9007 12.5758 12.6591L12.5558 11.4718C12.5517 11.2301 12.6135 10.9918 12.7344 10.7824L12.7776 10.7076C12.8986 10.4981 13.0743 10.3255 13.2859 10.2082L14.3225 9.6338C14.535 9.51606 14.6666 9.29208 14.666 9.04917L14.6612 6.94795C14.6607 6.70652 14.5297 6.48425 14.3187 6.36688L13.2846 5.79161C13.0738 5.67437 12.8989 5.50218 12.7782 5.29336Z" stroke="white" stroke-linecap="round" stroke-linejoin="round"/>
</svg>
