<svg width="16" height="16" viewBox="0 0 16 16" fill="none" xmlns="http://www.w3.org/2000/svg">
<path d="M11.7736 15.1132C11.4202 15.1132 10.9669 14.9999 10.4002 14.6665L8.40691 13.4865C8.20024 13.3665 7.80024 13.3665 7.60024 13.4865L5.60024 14.6665C4.42024 15.3666 3.72691 15.0866 3.41357 14.8599C3.10691 14.6332 2.62691 14.0532 2.94024 12.7199L3.41357 10.6732C3.46691 10.4599 3.36024 10.0932 3.20024 9.93322L1.54691 8.27988C0.720241 7.45322 0.786908 6.74655 0.900241 6.39988C1.01357 6.05322 1.37357 5.43988 2.52024 5.24655L4.64691 4.89322C4.84691 4.85988 5.13357 4.64655 5.22024 4.46655L6.40024 2.11322C6.93357 1.03988 7.63357 0.879883 8.00024 0.879883C8.36691 0.879883 9.06691 1.03988 9.60024 2.11322L10.7736 4.45988C10.8669 4.63988 11.1536 4.85322 11.3536 4.88655L13.4802 5.23988C14.6336 5.43322 14.9936 6.04655 15.1002 6.39322C15.2069 6.73988 15.2736 7.44655 14.4536 8.27322L12.8002 9.93322C12.6402 10.0932 12.5402 10.4532 12.5869 10.6732L13.0602 12.7199C13.3669 14.0532 12.8936 14.6332 12.5869 14.8599C12.4202 14.9799 12.1536 15.1132 11.7736 15.1132ZM8.00024 12.3932C8.32691 12.3932 8.65357 12.4732 8.91357 12.6266L10.9069 13.8065C11.4869 14.1532 11.8536 14.1532 11.9936 14.0532C12.1336 13.9532 12.2336 13.5999 12.0869 12.9466L11.6136 10.8999C11.4869 10.3465 11.6936 9.63322 12.0936 9.22655L13.7469 7.57322C14.0736 7.24655 14.2202 6.92655 14.1536 6.70655C14.0802 6.48655 13.7736 6.30655 13.3202 6.23322L11.1936 5.87988C10.6802 5.79322 10.1202 5.37988 9.88691 4.91322L8.71357 2.56655C8.50024 2.13988 8.23357 1.88655 8.00024 1.88655C7.76691 1.88655 7.50024 2.13988 7.29357 2.56655L6.11357 4.91322C5.88024 5.37988 5.32024 5.79322 4.80691 5.87988L2.68691 6.23322C2.23357 6.30655 1.92691 6.48655 1.85357 6.70655C1.78024 6.92655 1.93357 7.25322 2.26024 7.57322L3.91357 9.22655C4.31357 9.62655 4.52024 10.3465 4.39357 10.8999L3.92024 12.9466C3.76691 13.6066 3.87357 13.9532 4.01357 14.0532C4.15357 14.1532 4.51357 14.1465 5.10024 13.8065L7.09358 12.6266C7.34691 12.4732 7.67357 12.3932 8.00024 12.3932Z" fill="white"/>
</svg>
