<svg width="28" height="20" viewBox="0 0 28 20" fill="none" xmlns="http://www.w3.org/2000/svg">
<rect width="28" height="20" rx="2" fill="white"/>
<mask id="mask0_17_1339" style="mask-type:luminance" maskUnits="userSpaceOnUse" x="0" y="0" width="28" height="20">
<rect width="28" height="20" rx="2" fill="white"/>
</mask>
<g mask="url(#mask0_17_1339)">
<path fill-rule="evenodd" clip-rule="evenodd" d="M28 0H0V1.33333H28V0ZM28 2.66667H0V4H28V2.66667ZM0 5.33333H28V6.66667H0V5.33333ZM28 8H0V9.33333H28V8ZM0 10.6667H28V12H0V10.6667ZM28 13.3333H0V14.6667H28V13.3333ZM0 16H28V17.3333H0V16ZM28 18.6667H0V20H28V18.6667Z" fill="#D02F44"/>
<rect width="12" height="9.33333" fill="#46467F"/>
<g filter="url(#filter0_d_17_1339)">
<path fill-rule="evenodd" clip-rule="evenodd" d="M2.66667 1.99992C2.66667 2.36811 2.36819 2.66659 2 2.66659C1.63181 2.66659 1.33333 2.36811 1.33333 1.99992C1.33333 1.63173 1.63181 1.33325 2 1.33325C2.36819 1.33325 2.66667 1.63173 2.66667 1.99992ZM5.33333 1.99992C5.33333 2.36811 5.03486 2.66659 4.66667 2.66659C4.29848 2.66659 4 2.36811 4 1.99992C4 1.63173 4.29848 1.33325 4.66667 1.33325C5.03486 1.33325 5.33333 1.63173 5.33333 1.99992ZM7.33333 2.66659C7.70152 2.66659 8 2.36811 8 1.99992C8 1.63173 7.70152 1.33325 7.33333 1.33325C6.96514 1.33325 6.66667 1.63173 6.66667 1.99992C6.66667 2.36811 6.96514 2.66659 7.33333 2.66659ZM10.6667 1.99992C10.6667 2.36811 10.3682 2.66659 10 2.66659C9.63181 2.66659 9.33333 2.36811 9.33333 1.99992C9.33333 1.63173 9.63181 1.33325 10 1.33325C10.3682 1.33325 10.6667 1.63173 10.6667 1.99992ZM3.33333 3.99992C3.70152 3.99992 4 3.70144 4 3.33325C4 2.96506 3.70152 2.66659 3.33333 2.66659C2.96514 2.66659 2.66667 2.96506 2.66667 3.33325C2.66667 3.70144 2.96514 3.99992 3.33333 3.99992ZM6.66667 3.33325C6.66667 3.70144 6.36819 3.99992 6 3.99992C5.63181 3.99992 5.33333 3.70144 5.33333 3.33325C5.33333 2.96506 5.63181 2.66659 6 2.66659C6.36819 2.66659 6.66667 2.96506 6.66667 3.33325ZM8.66667 3.99992C9.03486 3.99992 9.33333 3.70144 9.33333 3.33325C9.33333 2.96506 9.03486 2.66659 8.66667 2.66659C8.29848 2.66659 8 2.96506 8 3.33325C8 3.70144 8.29848 3.99992 8.66667 3.99992ZM10.6667 4.66659C10.6667 5.03478 10.3682 5.33325 10 5.33325C9.63181 5.33325 9.33333 5.03478 9.33333 4.66659C9.33333 4.2984 9.63181 3.99992 10 3.99992C10.3682 3.99992 10.6667 4.2984 10.6667 4.66659ZM7.33333 5.33325C7.70152 5.33325 8 5.03478 8 4.66659C8 4.2984 7.70152 3.99992 7.33333 3.99992C6.96514 3.99992 6.66667 4.2984 6.66667 4.66659C6.66667 5.03478 6.96514 5.33325 7.33333 5.33325ZM5.33333 4.66659C5.33333 5.03478 5.03486 5.33325 4.66667 5.33325C4.29848 5.33325 4 5.03478 4 4.66659C4 4.2984 4.29848 3.99992 4.66667 3.99992C5.03486 3.99992 5.33333 4.2984 5.33333 4.66659ZM2 5.33325C2.36819 5.33325 2.66667 5.03478 2.66667 4.66659C2.66667 4.2984 2.36819 3.99992 2 3.99992C1.63181 3.99992 1.33333 4.2984 1.33333 4.66659C1.33333 5.03478 1.63181 5.33325 2 5.33325ZM4 5.99992C4 6.36811 3.70152 6.66659 3.33333 6.66659C2.96514 6.66659 2.66667 6.36811 2.66667 5.99992C2.66667 5.63173 2.96514 5.33325 3.33333 5.33325C3.70152 5.33325 4 5.63173 4 5.99992ZM6 6.66659C6.36819 6.66659 6.66667 6.36811 6.66667 5.99992C6.66667 5.63173 6.36819 5.33325 6 5.33325C5.63181 5.33325 5.33333 5.63173 5.33333 5.99992C5.33333 6.36811 5.63181 6.66659 6 6.66659ZM9.33333 5.99992C9.33333 6.36811 9.03486 6.66659 8.66667 6.66659C8.29848 6.66659 8 6.36811 8 5.99992C8 5.63173 8.29848 5.33325 8.66667 5.33325C9.03486 5.33325 9.33333 5.63173 9.33333 5.99992ZM10 7.99992C10.3682 7.99992 10.6667 7.70144 10.6667 7.33325C10.6667 6.96506 10.3682 6.66659 10 6.66659C9.63181 6.66659 9.33333 6.96506 9.33333 7.33325C9.33333 7.70144 9.63181 7.99992 10 7.99992ZM8 7.33325C8 7.70144 7.70152 7.99992 7.33333 7.99992C6.96514 7.99992 6.66667 7.70144 6.66667 7.33325C6.66667 6.96506 6.96514 6.66659 7.33333 6.66659C7.70152 6.66659 8 6.96506 8 7.33325ZM4.66667 7.99992C5.03486 7.99992 5.33333 7.70144 5.33333 7.33325C5.33333 6.96506 5.03486 6.66659 4.66667 6.66659C4.29848 6.66659 4 6.96506 4 7.33325C4 7.70144 4.29848 7.99992 4.66667 7.99992ZM2.66667 7.33325C2.66667 7.70144 2.36819 7.99992 2 7.99992C1.63181 7.99992 1.33333 7.70144 1.33333 7.33325C1.33333 6.96506 1.63181 6.66659 2 6.66659C2.36819 6.66659 2.66667 6.96506 2.66667 7.33325Z" fill="url(#paint0_linear_17_1339)"/>
</g>
</g>
<defs>
<filter id="filter0_d_17_1339" x="1.33333" y="1.33325" width="9.33333" height="7.66675" filterUnits="userSpaceOnUse" color-interpolation-filters="sRGB">
<feFlood flood-opacity="0" result="BackgroundImageFix"/>
<feColorMatrix in="SourceAlpha" type="matrix" values="0 0 0 0 0 0 0 0 0 0 0 0 0 0 0 0 0 0 127 0" result="hardAlpha"/>
<feOffset dy="1"/>
<feColorMatrix type="matrix" values="0 0 0 0 0 0 0 0 0 0 0 0 0 0 0 0 0 0 0.06 0"/>
<feBlend mode="normal" in2="BackgroundImageFix" result="effect1_dropShadow_17_1339"/>
<feBlend mode="normal" in="SourceGraphic" in2="effect1_dropShadow_17_1339" result="shape"/>
</filter>
<linearGradient id="paint0_linear_17_1339" x1="1.33333" y1="1.33325" x2="1.33333" y2="7.99992" gradientUnits="userSpaceOnUse">
<stop stop-color="white"/>
<stop offset="1" stop-color="#F0F0F0"/>
</linearGradient>
</defs>
</svg>
