 <svg width="20" height="20" viewBox="0 0 20 20" fill="none" xmlns="http://www.w3.org/2000/svg">
<path d="M12.248 18.0624H7.74805C3.67555 18.0624 1.93555 16.3224 1.93555 12.2499V7.74988C1.93555 3.67738 3.67555 1.93738 7.74805 1.93738H9.24805C9.55555 1.93738 9.81055 2.19238 9.81055 2.49988C9.81055 2.80738 9.55555 3.06238 9.24805 3.06238H7.74805C4.29055 3.06238 3.06055 4.29238 3.06055 7.74988V12.2499C3.06055 15.7074 4.29055 16.9374 7.74805 16.9374H12.248C15.7055 16.9374 16.9355 15.7074 16.9355 12.2499V10.7499C16.9355 10.4424 17.1905 10.1874 17.498 10.1874C17.8055 10.1874 18.0605 10.4424 18.0605 10.7499V12.2499C18.0605 16.3224 16.3205 18.0624 12.248 18.0624Z" fill="#BBBBBB" stroke="#BBBBBB" stroke-width="0.5"/>
<path d="M7.37549 14.2675C6.91799 14.2675 6.49799 14.1025 6.19049 13.8025C5.82299 13.435 5.66549 12.9025 5.74799 12.34L6.07049 10.0825C6.13049 9.64754 6.41549 9.08504 6.72299 8.77754L12.633 2.86754C14.1255 1.37504 15.6405 1.37504 17.133 2.86754C17.9505 3.68504 18.318 4.51754 18.243 5.35004C18.1755 6.02504 17.8155 6.68504 17.133 7.36004L11.223 13.27C10.9155 13.5775 10.353 13.8625 9.91799 13.9225L7.66049 14.245C7.56299 14.2675 7.46549 14.2675 7.37549 14.2675ZM13.428 3.66254L7.51799 9.57254C7.37549 9.71504 7.21049 10.045 7.18049 10.24L6.85799 12.4975C6.82799 12.715 6.87299 12.895 6.98549 13.0075C7.09799 13.12 7.27799 13.165 7.49549 13.135L9.75299 12.8125C9.94799 12.7825 10.2855 12.6175 10.4205 12.475L16.3305 6.56504C16.818 6.07754 17.073 5.64254 17.1105 5.23754C17.1555 4.75004 16.9005 4.23254 16.3305 3.65504C15.1305 2.45504 14.3055 2.79254 13.428 3.66254Z" fill="#BBBBBB" stroke="#BBBBBB" stroke-width="0.5"/>
<path d="M15.8867 8.37246C15.8342 8.37246 15.7817 8.36496 15.7367 8.34996C13.7642 7.79496 12.1967 6.22746 11.6417 4.25496C11.5592 3.95496 11.7317 3.64746 12.0317 3.55746C12.3317 3.47496 12.6392 3.64746 12.7217 3.94746C13.1717 5.54496 14.4392 6.81246 16.0367 7.26246C16.3367 7.34496 16.5092 7.65996 16.4267 7.95996C16.3592 8.21496 16.1342 8.37246 15.8867 8.37246Z" fill="#BBBBBB" stroke="#BBBBBB" stroke-width="0.5"/>
</svg>
