<svg width="20" height="20" viewBox="0 0 20 20" fill="none" xmlns="http://www.w3.org/2000/svg">
<path d="M13.5668 18.4167H10.4001C9.93346 18.4167 8.9168 18.275 8.37513 17.7334L5.85013 15.7834L6.6168 14.7917L9.20013 16.7917C9.40846 16.9917 9.93346 17.1584 10.4001 17.1584H13.5668C14.3168 17.1584 15.1251 16.5584 15.2918 15.8834L17.3085 9.75837C17.4418 9.3917 17.4168 9.05837 17.2418 8.8167C17.0585 8.55837 16.7251 8.40837 16.3168 8.40837H12.9835C12.5501 8.40837 12.1501 8.22503 11.8751 7.90837C11.5918 7.58337 11.4668 7.15003 11.5335 6.70003L11.9501 4.02503C12.0501 3.55837 11.7335 3.03337 11.2835 2.88337C10.8751 2.73337 10.3501 2.95003 10.1668 3.2167L6.75013 8.30003L5.7168 7.60837L9.13346 2.52503C9.65846 1.7417 10.8085 1.3667 11.7085 1.70837C12.7501 2.05003 13.4168 3.20003 13.1835 4.2667L12.7751 6.8917C12.7668 6.95003 12.7668 7.03337 12.8251 7.10003C12.8668 7.1417 12.9251 7.1667 12.9918 7.1667H16.3251C17.1418 7.1667 17.8501 7.50837 18.2668 8.10003C18.6751 8.67503 18.7585 9.43337 18.4918 10.1667L16.5001 16.2334C16.1918 17.4417 14.9085 18.4167 13.5668 18.4167Z" fill="#DADADA"/>
<path d="M4.4834 17.5H3.65007C2.1084 17.5 1.3584 16.775 1.3584 15.2916V7.12496C1.3584 5.64163 2.1084 4.91663 3.65007 4.91663H4.4834C6.02507 4.91663 6.77507 5.64163 6.77507 7.12496V15.2916C6.77507 16.775 6.02507 17.5 4.4834 17.5ZM3.65007 6.16663C2.74173 6.16663 2.6084 6.38329 2.6084 7.12496V15.2916C2.6084 16.0333 2.74173 16.25 3.65007 16.25H4.4834C5.39173 16.25 5.52507 16.0333 5.52507 15.2916V7.12496C5.52507 6.38329 5.39173 6.16663 4.4834 6.16663H3.65007Z" fill="#DADADA"/>
</svg>
