<svg width="20" height="20" viewBox="0 0 20 20" fill="none" xmlns="http://www.w3.org/2000/svg">
<path fill-rule="evenodd" clip-rule="evenodd" d="M3 8.57009C3 4.66021 6.16555 1.5 9.9946 1.5C13.8344 1.5 17 4.66021 17 8.57009C17 10.5403 16.3058 12.3695 15.1631 13.9198C13.9025 15.63 12.3488 17.12 10.6 18.2896C10.1997 18.5599 9.83848 18.5803 9.39919 18.2896C7.64037 17.12 6.08666 15.63 4.83688 13.9198C3.6934 12.3695 3 10.5403 3 8.57009ZM7.68945 8.79019C7.68945 10.1 8.72498 11.1302 9.99469 11.1302C11.2652 11.1302 12.3107 10.1 12.3107 8.79019C12.3107 7.49058 11.2652 6.41026 9.99469 6.41026C8.72498 6.41026 7.68945 7.49058 7.68945 8.79019Z" fill="#888888"/>
</svg>
