<svg width="14" height="18" viewBox="0 0 14 18" fill="none" xmlns="http://www.w3.org/2000/svg">
<path fill-rule="evenodd" clip-rule="evenodd" d="M0 7.57009C0 3.66021 3.16555 0.5 6.9946 0.5C10.8344 0.5 14 3.66021 14 7.57009C14 9.54034 13.3058 11.3695 12.1631 12.9198C10.9025 14.63 9.34883 16.12 7.59998 17.2896C7.19972 17.5599 6.83848 17.5803 6.39919 17.2896C4.64037 16.12 3.08666 14.63 1.83688 12.9198C0.693398 11.3695 0 9.54034 0 7.57009ZM4.68945 7.79019C4.68945 9.1 5.72498 10.1302 6.99469 10.1302C8.26523 10.1302 9.31072 9.1 9.31072 7.79019C9.31072 6.49058 8.26523 5.41026 6.99469 5.41026C5.72498 5.41026 4.68945 6.49058 4.68945 7.79019Z" fill="#FF39A4"/>
</svg>
